# xmcd
#
# Track frame offsets:
#  150
#  13706
#  34909
#  46748
#  71544
#  84521
#  98617
#  124413
#  138890
#
# Disc length: 2101 seconds
#
# Revision: 0
# Processed by: cddbd v1.5.2PL0 Copyright (c) Steve Scherf et al.
# Submitted via: Collectorz.com_Music_Collector 6.10
#
DISCID=6e083309
DTITLE=Nelsen Adelard - Nelsen Adelard - Unplugged
DYEAR=2006
DGENRE=Blues
TTITLE0=Four Winds Blow
TTITLE1=Shake Rattle and Roll/Honey Hush
TTITLE2=Gotta Boogie
TTITLE3=Back Door Man
TTITLE4=Woman By My Side
TTITLE5=Boogie Woogie Blue
TTITLE6=She Moves Me/Standin' Round Cryin'
TTITLE7=Don't Stop Now
TTITLE8=No Good To Cry
EXTD=
EXTT0=
EXTT1=
EXTT2=
EXTT3=
EXTT4=
EXTT5=
EXTT6=
EXTT7=
EXTT8=
PLAYORDER=
